<svg xmlns="http://www.w3.org/2000/svg" viewBox="0 0 100 100" width="100" height="100">
  <g fill="none" stroke="#000" stroke-width="5">
    <!-- Первый гаечный ключ -->
    <path d="M 20 50 L 40 30 Q 50 20 60 30 L 80 50 Q 90 60 80 70 L 60 90 Q 50 100 40 90 L 20 70 Q 10 60 20 50 Z"/>
    <path d="M 40 30 L 60 50 L 40 70" stroke-linecap="round"/>
    <!-- Второй гаечный ключ -->
    <path d="M 50 20 L 70 40 Q 80 50 70 60 L 50 80 Q 40 90 30 80 L 10 60 Q 0 50 10 40 L 30 20 Q 40 10 50 20 Z"/>
    <path d="M 70 40 L 50 60 L 30 40" stroke-linecap="round"/>
  </g>
</svg>